<mxfile host="app.diagrams.net" modified="2023-04-11T13:13:12.936Z" agent="Mozilla/5.0 (Windows NT 10.0; Win64; x64) AppleWebKit/537.36 (KHTML, like Gecko) Chrome/112.0.0.0 Safari/537.36" version="21.1.5" etag="BE3blkqwYBfvhe6TWFz6" type="github">
  <diagram name="Page-1" id="VzLah_kHe-2LNjMWZqBE">
    <mxGraphModel>
      <root>
        <mxCell id="0" />
        <mxCell id="1" parent="0" />
      </root>
    </mxGraphModel>
  </diagram>
</mxfile>
